<svg xmlns="http://www.w3.org/2000/svg" version="1.1" xmlns:xlink="http://www.w3.org/1999/xlink" xmlns:svgjs="http://svgjs.dev/svgjs" width="1500" height="1500" viewBox="0 0 1500 1500"><rect width="1500" height="1500" fill="#000000"></rect><g transform="matrix(0.6666666666666666,0,0,0.6666666666666666,249.39393939393938,640.3847126147261)"><svg viewBox="0 0 396 87" data-background-color="#ffffff" preserveAspectRatio="xMidYMid meet" height="329" width="1500" xmlns="http://www.w3.org/2000/svg" xmlns:xlink="http://www.w3.org/1999/xlink"><g id="tight-bounds" transform="matrix(1,0,0,1,0.2400000000000091,-0.020379927725684865)"><svg viewBox="0 0 395.52 87.04075985545138" height="87.04075985545138" width="395.52"><g><svg viewBox="0 0 487.8905769111128 107.36844291226186" height="87.04075985545138" width="395.52"><g><svg viewBox="0 0 487.8905769111128 107.36844291226186" height="107.36844291226186" width="487.8905769111128"><g id="textblocktransform"><svg viewBox="0 0 487.8905769111128 107.36844291226186" height="107.36844291226186" width="487.8905769111128" id="textblock"><g><svg viewBox="0 0 487.8905769111128 73.29539999999999" height="73.29539999999999" width="487.8905769111128"><g><svg><g></g><g></g></svg></g><g><svg><g><svg></svg></g><g></g></svg></g><g id="text-0"><svg viewBox="0 0 487.8905769111128 73.29539999999999" height="73.29539999999999" width="487.8905769111128"><g transform="matrix(1,0,0,1,0,5.449622340240296)"><svg width="395.52" viewBox="3.9 -35 287.42 45.3" height="62.396155319519394" data-palette-color="#0c0a0f"><g class="wordmark-text-0" data-fill-palette-color="primary"><path d="M17.85-24.95L17.85-24.95Q22.3-24.95 24.25-21.68 26.2-18.4 26.2-12.05L26.2-12.05Q26.2-7.35 25.2-4.58 24.2-1.8 22.18-0.6 20.15 0.6 17 0.6L17 0.6Q14.6 0.6 12.28-0.05 9.95-0.7 7.75-2.05L7.75-2.05 8-4.6Q10.35-3.95 12.15-3.53 13.95-3.1 15.95-3.1L15.95-3.1Q18.1-3.1 19.38-3.85 20.65-4.6 21.25-6.55 21.85-8.5 21.85-12.05L21.85-12.05Q21.85-15.5 21.3-17.5 20.75-19.5 19.58-20.38 18.4-21.25 16.45-21.25L16.45-21.25Q14.45-21.25 12.5-20.3 10.55-19.35 7.95-17.4L7.95-17.4 7.55-20.25Q8.9-21.7 10.6-22.75 12.3-23.8 14.18-24.38 16.05-24.95 17.85-24.95ZM3.9-24.35L7.4-24.35 7.85-19.3 8.15-18.65 8.15-3.05 7.95-2.45Q8.1-1.05 8.13 0.25 8.15 1.55 8.15 3L8.15 3 8.15 10.05 3.9 10.05 3.9-24.35ZM47.7-24.95L47.7-24.95Q54.3-24.95 54.3-18.25L54.3-18.25 54.3 0 50 0 50-17.05Q50-19.5 49.22-20.43 48.45-21.35 46.55-21.35L46.55-21.35Q44.3-21.35 42.05-20.3 39.8-19.25 36.7-17.25L36.7-17.25 36.5-20.3Q39.35-22.45 42.15-23.7 44.95-24.95 47.7-24.95ZM32.9-35L37.15-35 37.2-25.35Q37.2-23.7 37.07-22.25 36.95-20.8 36.7-19.7L36.7-19.7 37.15-18.95 37.15 0 32.9 0 32.9-35ZM72.25-24.95L72.25-24.95Q76.45-24.95 78.97-23.7 81.5-22.45 82.59-19.63 83.7-16.8 83.7-12.15L83.7-12.15Q83.7-7.5 82.59-4.67 81.5-1.85 78.97-0.6 76.45 0.65 72.25 0.65L72.25 0.65Q68.09 0.65 65.57-0.6 63.05-1.85 61.92-4.67 60.8-7.5 60.8-12.15L60.8-12.15Q60.8-16.8 61.92-19.63 63.05-22.45 65.57-23.7 68.09-24.95 72.25-24.95ZM72.25-21.35L72.25-21.35Q69.59-21.35 68.07-20.53 66.55-19.7 65.89-17.7 65.25-15.7 65.25-12.15L65.25-12.15Q65.25-8.6 65.89-6.6 66.55-4.6 68.07-3.78 69.59-2.95 72.25-2.95L72.25-2.95Q74.9-2.95 76.45-3.78 78-4.6 78.65-6.6 79.3-8.6 79.3-12.15L79.3-12.15Q79.3-15.7 78.65-17.7 78-19.7 76.45-20.53 74.9-21.35 72.25-21.35ZM92.19-31.55L96.44-31.55 96.44-6.7Q96.44-4.95 97.19-4.2 97.94-3.45 99.74-3.45L99.74-3.45 103.44-3.45 103.94-0.2Q103.14 0 102.09 0.15 101.04 0.3 100.04 0.38 99.04 0.45 98.44 0.45L98.44 0.45Q95.39 0.45 93.79-1.25 92.19-2.95 92.19-6.15L92.19-6.15 92.19-31.55ZM92.59-24.35L104.19-24.35 104.19-21 87.79-21 87.79-24.1 92.59-24.35ZM119.69-24.95L119.69-24.95Q123.89-24.95 126.42-23.7 128.94-22.45 130.04-19.63 131.14-16.8 131.14-12.15L131.14-12.15Q131.14-7.5 130.04-4.67 128.94-1.85 126.42-0.6 123.89 0.65 119.69 0.65L119.69 0.65Q115.54 0.65 113.02-0.6 110.49-1.85 109.37-4.67 108.24-7.5 108.24-12.15L108.24-12.15Q108.24-16.8 109.37-19.63 110.49-22.45 113.02-23.7 115.54-24.95 119.69-24.95ZM119.69-21.35L119.69-21.35Q117.04-21.35 115.52-20.53 113.99-19.7 113.34-17.7 112.69-15.7 112.69-12.15L112.69-12.15Q112.69-8.6 113.34-6.6 113.99-4.6 115.52-3.78 117.04-2.95 119.69-2.95L119.69-2.95Q122.34-2.95 123.89-3.78 125.44-4.6 126.09-6.6 126.74-8.6 126.74-12.15L126.74-12.15Q126.74-15.7 126.09-17.7 125.44-19.7 123.89-20.53 122.34-21.35 119.69-21.35ZM147.44-24.95L147.44-24.95Q151.34-24.95 153.61-24.15 155.89-23.35 156.86-21.65 157.84-19.95 157.84-17.2L157.84-17.2Q157.84-14.55 156.86-12.83 155.89-11.1 153.59-10.28 151.29-9.45 147.39-9.45L147.39-9.45Q143.49-9.45 141.21-10.28 138.94-11.1 137.96-12.8 136.99-14.5 136.99-17.15L136.99-17.15Q136.99-19.9 137.96-21.63 138.94-23.35 141.24-24.15 143.54-24.95 147.44-24.95ZM147.39-21.7L147.39-21.7Q143.74-21.7 142.31-20.68 140.89-19.65 140.89-17.2L140.89-17.2Q140.89-14.8 142.31-13.75 143.74-12.7 147.39-12.7L147.39-12.7Q151.09-12.7 152.49-13.75 153.89-14.8 153.89-17.2L153.89-17.2Q153.89-19.65 152.49-20.68 151.09-21.7 147.39-21.7ZM152.49-24.35L160.69-24.35 160.44-22 154.24-21.5 152.49-24.35ZM140.54-11.05L140.54-11.05 142.99-10.7Q142.14-9.95 141.84-8.88 141.54-7.8 142.01-6.9 142.49-6 144.04-5.75L144.04-5.75 153.14-4.3Q156.59-3.8 157.94-2.15 159.29-0.5 159.29 2.55L159.29 2.55Q159.29 5.4 158.21 7.05 157.14 8.7 154.59 9.4 152.04 10.1 147.69 10.1L147.69 10.1Q144.39 10.1 142.14 9.73 139.89 9.35 138.51 8.47 137.14 7.6 136.54 6.2 135.94 4.8 135.94 2.7L135.94 2.7Q135.94 1.1 136.41 0.03 136.89-1.05 137.91-1.9 138.94-2.75 140.59-3.55L140.59-3.55 143.59-5.2 145.54-4.5 143.09-2.65Q142.09-1.9 141.41-1.18 140.74-0.45 140.41 0.38 140.09 1.2 140.09 2.35L140.09 2.35Q140.09 4.05 140.74 4.95 141.39 5.85 143.04 6.18 144.69 6.5 147.64 6.5L147.64 6.5Q150.59 6.5 152.21 6.15 153.84 5.8 154.49 4.9 155.14 4 155.14 2.35L155.14 2.35Q155.14 1.1 154.81 0.45 154.49-0.2 153.59-0.55 152.69-0.9 150.94-1.15L150.94-1.15 142.19-2.35Q140.64-2.55 139.71-3.35 138.79-4.15 138.44-5.25 138.09-6.35 138.24-7.48 138.39-8.6 138.99-9.58 139.59-10.55 140.54-11.05ZM177.19-24.95L177.19-24.95Q179.89-24.95 181.76-24.23 183.64-23.5 184.59-21.8 185.54-20.1 185.54-17.15L185.54-17.15 185.54 0 182.19 0 181.54-5.3 181.24-5.85 181.24-17.15Q181.24-19.4 180.21-20.38 179.19-21.35 176.29-21.35L176.29-21.35Q174.39-21.35 171.51-21.15 168.64-20.95 165.84-20.7L165.84-20.7 165.44-23.85Q167.14-24.15 169.16-24.4 171.19-24.65 173.29-24.8 175.39-24.95 177.19-24.95ZM171.09-15L183.54-15 183.49-11.8 171.84-11.75Q170.09-11.7 169.39-10.83 168.69-9.95 168.69-8.4L168.69-8.4 168.69-6.85Q168.69-4.95 169.59-4.08 170.49-3.2 172.49-3.2L172.49-3.2Q173.89-3.2 175.66-3.73 177.44-4.25 179.24-5.35 181.04-6.45 182.54-8.15L182.54-8.15 182.54-5Q181.99-4.3 180.96-3.38 179.94-2.45 178.51-1.58 177.09-0.7 175.36-0.13 173.64 0.45 171.64 0.45L171.64 0.45Q169.49 0.45 167.84-0.33 166.19-1.1 165.26-2.63 164.34-4.15 164.34-6.35L164.34-6.35 164.34-9Q164.34-11.85 166.11-13.43 167.89-15 171.09-15L171.09-15ZM193.18-35L197.43-35 197.38-6.7Q197.38-5.1 198.26-4.28 199.13-3.45 200.73-3.45L200.73-3.45 203.08-3.45 203.58-0.2Q203.13 0 202.31 0.15 201.48 0.3 200.61 0.38 199.73 0.45 199.13 0.45L199.13 0.45Q196.43 0.45 194.81-1.15 193.18-2.75 193.18-5.75L193.18-5.75 193.18-35ZM208.03-35L212.28-35 212.23-6.7Q212.23-5.1 213.11-4.28 213.98-3.45 215.58-3.45L215.58-3.45 217.93-3.45 218.43-0.2Q217.98 0 217.16 0.15 216.33 0.3 215.46 0.38 214.58 0.45 213.98 0.45L213.98 0.45Q211.28 0.45 209.66-1.15 208.03-2.75 208.03-5.75L208.03-5.75 208.03-35ZM232.83-24.95L232.83-24.95Q238.33-24.95 240.8-22.95 243.28-20.95 243.28-17L243.28-17Q243.33-13.75 241.93-11.93 240.53-10.1 237.48-10.1L237.48-10.1 223.28-10.1 223.28-13.4 236.38-13.4Q238.03-13.4 238.53-14.53 239.03-15.65 239.03-17L239.03-17Q238.98-19.35 237.63-20.35 236.28-21.35 233.03-21.35L233.03-21.35Q230.38-21.35 228.85-20.58 227.33-19.8 226.7-17.88 226.08-15.95 226.08-12.5L226.08-12.5Q226.08-8.6 226.85-6.55 227.63-4.5 229.33-3.75 231.03-3 233.83-3L233.83-3Q235.78-3 238.1-3.18 240.43-3.35 242.28-3.6L242.28-3.6 242.73-0.75Q241.58-0.3 239.9 0 238.23 0.3 236.45 0.45 234.68 0.6 233.28 0.6L233.28 0.6Q229.08 0.6 226.53-0.68 223.98-1.95 222.8-4.78 221.63-7.6 221.63-12.25L221.63-12.25Q221.63-17.05 222.8-19.83 223.98-22.6 226.45-23.78 228.93-24.95 232.83-24.95ZM249.68-24.35L252.97-24.35 253.53-19.7 253.93-18.95 253.93 0 249.68 0 249.68-24.35ZM263.82-24.95L264.93-24.95 264.43-20.95 263.02-20.95Q260.88-20.95 258.73-20.08 256.57-19.2 253.47-17.6L253.47-17.6 253.13-20.25Q255.83-22.45 258.55-23.7 261.27-24.95 263.82-24.95L263.82-24.95ZM286.72-24.35L291.32-24.35 281.57 1.35Q280.97 2.95 280.07 4.5 279.17 6.05 277.9 7.33 276.62 8.6 274.9 9.4 273.17 10.2 270.92 10.3L270.92 10.3 270.52 7.5Q273.47 6.55 275.07 4.95 276.67 3.35 277.62 1.05L277.62 1.05 278.82-1.85Q279.22-2.85 279.62-4.05 280.02-5.25 280.37-6.2L280.37-6.2 286.72-24.35ZM266.72-24.35L271.27-24.35 277.72-6.2Q277.97-5.45 278.22-4.73 278.47-4 278.62-3.25L278.62-3.25 279.77-3.25 278.37 0 277.07 0Q276.57 0 276.15-0.3 275.72-0.6 275.57-1.1L275.57-1.1 266.72-24.35Z" fill="#ffffff" data-fill-palette-color="primary"></path></g></svg></g><g><svg xmlns="http://www.w3.org/2000/svg" xmlns:xlink="http://www.w3.org/1999/xlink" version="1.1" x="412.8246" y="0" viewBox="11.017823632605122 11.461749422187646 37.96369815853941 37.06825057781236" style="enable-background:new 0 0 60 60;" xml:space="preserve" height="73.29539999999999" width="75.06597691111287" class="icon-dxe-0" data-fill-palette-color="accent" id="dxe-0"><path d="M48.85 34.1L35.82 11.92A0.945 0.945 0 0 0 34.2 11.92L30 19.08 25.79 11.93A0.945 0.945 0 0 0 24.17 11.93L11.15 34.1C10.93 34.47 10.99 34.93 11.29 35.23L24.32 48.26C24.5 48.44 24.74 48.53 24.98 48.53S25.46 48.44 25.64 48.26L30 43.91 34.35 48.26C34.53 48.44 34.77 48.53 35.01 48.53S35.49 48.44 35.67 48.26L48.7 35.23C49.01 34.93 49.07 34.46 48.85 34.1M24.99 46.28L13.13 34.42 24.99 14.24 28.92 20.92 21.17 34.1C20.95 34.47 21.01 34.93 21.31 35.23L28.67 42.59zM30 22.77L36.85 34.42 30 41.27 23.15 34.42zM35.01 46.28L31.32 42.59 38.68 35.23C38.98 34.93 39.04 34.46 38.82 34.1L31.08 20.93 35.01 14.25 46.87 34.43z" fill="#ffffff" data-fill-palette-color="accent"></path></svg></g></svg></g></svg></g><g transform="matrix(1,0,0,1,0,88.02563476321085)"><svg viewBox="0 0 487.8905769111128 19.342808149051013" height="19.342808149051013" width="487.8905769111128"><g transform="matrix(1,0,0,1,0,0)"><svg width="487.8905769111128" viewBox="1.2 -35.25 1248.56 49.5" height="19.342808149051013" data-palette-color="#111111"><path d="M31.75-12.5L31.75-12.5Q31.65-8.65 29.95-5.65 28.25-2.65 25.43-0.98 22.6 0.7 19 0.7L19 0.7Q11.9 0.7 8.53-2.98 5.15-6.65 5.15-14.05L5.15-14.05 5.15-27.35Q5.15-30.35 2.85-31L2.85-31Q1.2-31.45 1.2-32.1L1.2-32.1Q1.2-32.65 2.65-32.65L2.65-32.65 7.45-32.5 11.45-32.6Q12.9-32.6 12.9-32.05L12.9-32.05Q12.9-31.6 11.25-31.05L11.25-31.05Q10.55-30.85 9.85-29.83 9.15-28.8 9.15-27.45L9.15-27.45 9.15-12.65Q9.15-9.65 10.63-7.18 12.1-4.7 14.63-3.25 17.15-1.8 20.2-1.8L20.2-1.8Q24.8-1.8 27.2-5.28 29.6-8.75 29.6-14.8L29.6-14.8Q29.6-16.35 29.55-19.03 29.5-21.7 29.4-25.55L29.4-25.55Q29.3-30.45 27.35-31L27.35-31Q25.7-31.45 25.7-32L25.7-32Q25.7-32.55 27.15-32.55L27.15-32.55 30.9-32.5 34.95-32.65Q36.4-32.65 36.4-32.1L36.4-32.1Q36.4-31.5 34.75-31.1L34.75-31.1Q32.4-30.65 32.25-27.35L32.25-27.35Q32.2-27.1 32.1-23.38 32-19.65 31.75-12.5ZM95.67 14.25L90.97 14 86.97 14.25Q85.92 14.25 85.92 13.75L85.92 13.75Q85.92 13.3 87.32 12.85L87.32 12.85Q88.77 12.4 88.97 11.9L88.97 11.9Q89.22 11.4 89.22 11L89.22 11 89.22-14.35Q89.22-14.95 88.95-15.73 88.67-16.5 88.17-17.18 87.67-17.85 86.92-18L86.92-18Q86.52-18.1 86.52-18.65L86.52-18.65Q86.52-19.2 86.87-19.25L86.87-19.25Q87.92-19.5 89.37-20 90.82-20.5 92.67-21.25L92.67-21.25 92.72-21.3 92.77-21.3Q93.07-21.3 93.07-20.85L93.07-20.85 92.82-17.85Q92.82-17.45 92.87-17.4L92.87-17.4Q93.52-18.05 94.9-18.8 96.27-19.55 97.92-20.13 99.57-20.7 100.97-20.7L100.97-20.7Q103.47-20.7 105.3-19.38 107.12-18.05 108.15-15.9 109.17-13.75 109.17-11.25L109.17-11.25Q109.17-8.95 108.3-6.8 107.42-4.65 105.87-2.98 104.32-1.3 102.27-0.3 100.22 0.7 97.92 0.7L97.92 0.7Q97.22 0.7 96.22 0.48 95.22 0.25 94.32-0.13 93.42-0.5 92.92-0.9L92.92-0.9Q92.72-0.9 92.72 1.65L92.72 1.65 92.72 11Q92.72 11.75 93.3 12.08 93.87 12.4 94.17 12.5L94.17 12.5Q94.27 12.55 94.5 12.6 94.72 12.65 94.97 12.7L94.97 12.7Q96.77 13.15 96.77 13.8L96.77 13.8Q96.77 14.25 95.67 14.25L95.67 14.25ZM94.17-2L94.17-2Q95.42-0.85 98.67-0.85L98.67-0.85Q100.57-0.85 102.15-2.25 103.72-3.65 104.47-5.5L104.47-5.5Q105.17-7.35 105.17-9.85L105.17-9.85Q105.17-12.35 104.45-14.25 103.72-16.15 102.57-17L102.57-17Q100.37-18.45 98.22-18.45L98.22-18.45Q95.97-18.45 94.45-17.3 92.92-16.15 92.77-13.45L92.77-13.45 92.72-10.25 92.72-8.7Q92.72-6.7 92.95-4.83 93.17-2.95 94.17-2ZM169.04 0.15L164.99-0.1 160.94 0.15Q159.94 0.15 159.94-0.35L159.94-0.35Q159.94-0.8 161.34-1.25L161.34-1.25Q162.79-1.7 162.99-2.2L162.99-2.2Q163.24-2.7 163.24-3.1L163.24-3.1 163.24-28.3Q163.24-31.45 160.94-31.95L160.94-31.95Q160.54-32.05 160.54-32.6L160.54-32.6Q160.54-33.15 160.89-33.2L160.89-33.2Q162.19-33.5 166.69-35.2L166.69-35.2 166.74-35.2 166.79-35.25Q167.09-35.25 167.09-34.9L167.09-34.9 166.99-34Q166.89-33.05 166.82-31.58 166.74-30.1 166.74-28.1L166.74-28.1 166.74-3.1Q166.74-2.1 167.37-1.8 167.99-1.5 169.04-1.15L169.04-1.15Q170.04-0.75 170.04-0.35L170.04-0.35Q170.04 0.15 169.04 0.15L169.04 0.15ZM242.11-10.35L242.11-10.35Q242.11-7.45 240.79-4.93 239.46-2.4 236.94-0.85 234.41 0.7 230.81 0.7L230.81 0.7Q228.01 0.7 225.74-0.6 223.46-1.9 222.16-4.17 220.86-6.45 220.86-9.35L220.86-9.35Q220.86-11.5 221.71-13.53 222.56-15.55 224.09-17.18 225.61-18.8 227.56-19.75 229.51-20.7 231.71-20.7L231.71-20.7Q234.66-20.7 237.01-19.33 239.36-17.95 240.74-15.63 242.11-13.3 242.11-10.35ZM224.96-10.5L224.96-10.5Q224.96-7.95 225.89-5.73 226.81-3.5 228.39-2.15 229.96-0.8 231.86-0.8L231.86-0.8Q234.36-0.8 235.69-1.88 237.01-2.95 237.51-4.88 238.01-6.8 238.01-9.35L238.01-9.35Q238.01-11.95 237.09-14.18 236.16-16.4 234.59-17.78 233.01-19.15 230.96-19.15L230.96-19.15Q224.96-19.15 224.96-10.5ZM303.23-1.25L303.23-1.25Q302.53-0.6 301.16 0.05 299.78 0.7 298.13 0.7L298.13 0.7Q297.03 0.7 296.01 0.13 294.98-0.45 294.33-1.38 293.68-2.3 293.68-3.25L293.68-3.25Q293.68-6.25 297.33-7.75L297.33-7.75 302.43-9.85Q303.38-10.25 303.58-10.55 303.78-10.85 303.83-11.85L303.83-11.85 303.93-14.95 303.93-15.05Q303.93-16.35 303.11-17.3 302.28-18.25 301.23-18.25L301.23-18.25Q300.13-18.25 299.18-17.73 298.23-17.2 297.98-16.75L297.98-16.75Q297.73-16.25 297.73-15.7L297.73-15.7 297.78-15Q297.78-14.7 297.08-14.3 296.38-13.9 295.58-13.58 294.78-13.25 294.43-13.25L294.43-13.25Q293.93-13.25 293.93-13.7L293.93-13.7Q293.93-14.85 294.73-15.9 295.53-16.95 296.81-17.9 298.08-18.85 299.48-19.6L299.48-19.6Q301.53-20.7 303.38-20.7L303.38-20.7Q305.13-20.7 306.33-19.4 307.53-18.1 307.48-16.25L307.48-16.25 307.23-5.45 307.23-5.15Q307.23-1.6 309.03-1.6L309.03-1.6Q310.23-1.6 311.03-2.3L311.03-2.3Q311.13-2.4 311.28-2.4L311.28-2.4Q311.48-2.4 311.66-2.25 311.83-2.1 311.83-1.85L311.83-1.85 311.83-1.8Q311.63-1.4 310.98-0.8 310.33-0.2 309.48 0.25 308.63 0.7 307.83 0.7L307.83 0.7Q306.58 0.7 305.76 0.05 304.93-0.6 304.58-1.25L304.58-1.25Q304.23-1.9 304.13-1.9L304.13-1.9Q303.88-1.9 303.23-1.25ZM297.68-4.35L297.68-4.35Q297.68-3.05 298.48-2.33 299.28-1.6 300.43-1.6L300.43-1.6Q301.58-1.6 302.63-2.5 303.68-3.4 303.73-4.95L303.73-4.95 303.83-7.4 303.83-7.65Q303.83-8.45 303.38-8.45L303.38-8.45Q303.08-8.45 302.68-8.3L302.68-8.3Q297.68-6.6 297.68-4.35ZM379.95 0.1L379.95 0.1Q377.95 0.95 377.65 0.95L377.65 0.95Q377.25 0.95 377.25 0.75L377.25 0.75 377.5-2.55 377.5-2.85Q376.6-1.45 374.9-0.38 373.2 0.7 370.95 0.7L370.95 0.7Q368.25 0.7 366.15-0.75 364.05-2.2 362.88-4.58 361.7-6.95 361.7-9.8L361.7-9.8Q361.7-12.65 363.1-15.15 364.5-17.65 367.05-19.18 369.6-20.7 372.95-20.7L372.95-20.7Q373.65-20.7 374.48-20.53 375.3-20.35 376-20.1 376.7-19.85 376.9-19.6L376.9-19.6Q377.2-19.2 377.4-19.2L377.4-19.2Q377.55-19.2 377.55-20.4L377.55-20.4 377.55-28.3Q377.55-30.2 376.98-30.93 376.4-31.65 375-31.95L375-31.95Q374.6-32.05 374.6-32.6L374.6-32.6Q374.6-33.15 374.95-33.2L374.95-33.2Q375.95-33.45 376.93-33.75 377.9-34.05 378.85-34.45L378.85-34.45Q380.8-35.2 381.1-35.2L381.1-35.2Q381.35-35.2 381.4-35L381.4-35Q381.4-34.9 381.4-34.65 381.4-34.4 381.35-34L381.35-34Q381.05-31.15 381.05-28.1L381.05-28.1 381.05-5.5Q381.05-2.25 382.1-2.25L382.1-2.25Q383.65-2.25 384.4-2.4L384.4-2.4 384.55-2.4Q385.15-2.4 385.15-1.8L385.15-1.8Q385.15-1.05 384.45-1.05L384.45-1.05Q383.15-0.85 382.03-0.58 380.9-0.3 379.95 0.1ZM368.3-3.25L368.3-3.25Q370.6-1.55 372.75-1.55L372.75-1.55Q374.85-1.55 376.2-2.85 377.55-4.15 377.55-6L377.55-6 377.55-12.75Q377.55-14.3 376.78-15.7 376-17.1 374.63-18.03 373.25-18.95 371.4-18.95L371.4-18.95Q369.6-18.95 368.15-17.73 366.7-16.5 366.05-14.75L366.05-14.75Q365.4-13.1 365.4-10.5L365.4-10.5Q365.4-8 366.23-6.08 367.05-4.15 368.3-3.25ZM514.75 0.25L508.9 0 502.5 0.25Q501.05 0.25 501.05-0.35L501.05-0.35Q501.05-0.9 502.7-1.2L502.7-1.2Q506.6-1.9 506.6-5.4L506.6-5.4 506.6-12.8Q506.6-14.3 505.35-16.5L505.35-16.5 499.5-26.1Q496.75-30.45 495.1-31L495.1-31Q493.4-31.5 493.4-32.1L493.4-32.1Q493.4-32.65 494.85-32.65L494.85-32.65 500.7-32.5 504.7-32.6Q506.15-32.6 506.15-32.05L506.15-32.05Q506.15-31.45 504.55-31.05L504.55-31.05Q502.9-30.7 502.9-29.8L502.9-29.8Q502.9-29.1 503.55-28L503.55-28 508.15-19.75Q509.3-17.85 509.55-17.85L509.55-17.85Q510.4-17.85 515.4-26.7L515.4-26.7Q516.3-28.2 516.3-29.25L516.3-29.25Q516.3-30.7 514.25-31L514.25-31Q513.7-31.1 513.15-31.4 512.6-31.7 512.6-32L512.6-32Q512.6-32.55 514.05-32.55L514.05-32.55 517.8-32.5 523-32.65Q524.45-32.65 524.45-32.15L524.45-32.15Q524.45-31.6 521.8-30.85L521.8-30.85Q520.6-30.5 519.8-29.6L519.8-29.6Q517.8-27.45 511.85-17.3L511.85-17.3Q511.25-16.3 511-15.68 510.75-15.05 510.67-14.45 510.6-13.85 510.6-12.8L510.6-12.8 510.6-5.4Q510.6-3.7 511.62-2.63 512.65-1.55 514.45-1.25L514.45-1.25Q516.2-0.85 516.2-0.35L516.2-0.35Q516.2 0.25 514.75 0.25L514.75 0.25ZM593.37-10.35L593.37-10.35Q593.37-7.45 592.04-4.93 590.72-2.4 588.19-0.85 585.67 0.7 582.07 0.7L582.07 0.7Q579.27 0.7 576.99-0.6 574.72-1.9 573.42-4.17 572.12-6.45 572.12-9.35L572.12-9.35Q572.12-11.5 572.97-13.53 573.82-15.55 575.34-17.18 576.87-18.8 578.82-19.75 580.77-20.7 582.97-20.7L582.97-20.7Q585.92-20.7 588.27-19.33 590.62-17.95 591.99-15.63 593.37-13.3 593.37-10.35ZM576.22-10.5L576.22-10.5Q576.22-7.95 577.14-5.73 578.07-3.5 579.64-2.15 581.22-0.8 583.12-0.8L583.12-0.8Q585.62-0.8 586.94-1.88 588.27-2.95 588.77-4.88 589.27-6.8 589.27-9.35L589.27-9.35Q589.27-11.95 588.34-14.18 587.42-16.4 585.84-17.78 584.27-19.15 582.22-19.15L582.22-19.15Q576.22-19.15 576.22-10.5ZM663.84 0.1L663.84 0.1Q661.84 0.95 661.54 0.95L661.54 0.95Q661.14 0.95 661.14 0.75L661.14 0.75 661.39-2.55 661.39-2.85Q657.74 0.7 653.14 0.7L653.14 0.7Q650.59 0.7 649.01-0.85 647.44-2.4 647.44-5.25L647.44-5.25 647.44-15.4Q647.44-17.45 645.29-18.25L645.29-18.25Q644.64-18.45 644.64-19.1L644.64-19.1Q644.64-19.7 645.39-19.85L645.39-19.85Q646.24-19.9 647.54-20.1 648.84-20.3 650.54-20.7L650.54-20.7 650.64-20.7Q651.34-20.7 651.24-20L651.24-20Q650.94-17.7 650.94-16.15L650.94-16.15 650.94-6.4Q650.94-5.2 651.54-4.17 652.14-3.15 653.11-2.5 654.09-1.85 655.14-1.85L655.14-1.85Q658.04-1.85 659.81-3.18 661.59-4.5 661.59-6.6L661.59-6.6 661.59-15.75Q661.59-17.1 660.54-17.65 659.49-18.2 658.34-18.25L658.34-18.25Q657.19-18.25 657.19-19.1L657.19-19.1Q657.19-19.5 657.64-19.7L657.64-19.7Q657.84-19.8 658.16-19.83 658.49-19.85 658.94-19.9L658.94-19.9Q660.89-19.9 662.29-20.15L662.29-20.15Q662.99-20.25 663.19-20.3L663.19-20.3Q663.54-20.3 664.79-20.75L664.79-20.75 664.89-20.75Q665.54-20.75 665.54-20.15L665.54-20.15Q665.54-19.95 665.39-19.65L665.39-19.65Q665.09-19.15 665.09-16.3L665.09-16.3 665.09-5.7Q665.09-2.25 665.99-2.25L665.99-2.25Q667.54-2.25 668.29-2.4L668.29-2.4 668.44-2.4Q669.04-2.4 669.04-1.8L669.04-1.8Q669.04-1.05 668.34-1.05L668.34-1.05Q667.04-0.85 665.91-0.58 664.79-0.3 663.84 0.1ZM728.46 0.15L724.11-0.1 720.06 0.15Q719.06 0.15 719.06-0.35L719.06-0.35Q719.06-0.8 719.96-1.1L719.96-1.1Q720.86-1.4 721.16-1.53 721.46-1.65 721.81-2.05L721.81-2.05Q722.11-2.45 722.11-3.1L722.11-3.1 722.11-13.85Q722.11-17 720.06-17.45L720.06-17.45Q719.66-17.55 719.66-18.1L719.66-18.1Q719.66-18.65 720.01-18.7L720.01-18.7Q721.86-19.05 722.81-19.7L722.81-19.7Q723.66-20.25 724.23-20.6 724.81-20.95 725.06-21.15L725.06-21.15Q725.61-21.45 725.61-21.5L725.61-21.5 725.76-21.5Q725.91-21.5 725.96-21.15L725.96-21.15Q725.96-20.5 725.96-19.85 725.96-19.2 725.91-18.55L725.91-18.55Q725.86-17.3 725.91-17.3L725.91-17.3Q725.91-17.3 726.16-17.55L726.16-17.55Q726.86-18.45 727.06-18.55L727.06-18.55Q729.41-20.7 731.66-20.7L731.66-20.7Q732.71-20.7 733.38-20.25 734.06-19.8 734.06-19.05L734.06-19.05Q734.06-18.3 733.43-17.4 732.81-16.5 732.26-16.5L732.26-16.5Q731.71-16.5 730.66-16.95L730.66-16.95Q729.61-17.4 729.11-17.4L729.11-17.4Q727.66-17.4 726.63-16.45 725.61-15.5 725.61-13.2L725.61-13.2 725.61-3.35Q725.66-2.05 728.31-1.2L728.31-1.2Q729.46-0.8 729.46-0.35L729.46-0.35Q729.46 0.15 728.46 0.15L728.46 0.15ZM874.5-23.2L863.4-0.7Q862.9 0.5 862.6 0.5L862.6 0.5Q862.3 0.5 861.85-0.8L861.85-0.8Q860.45-5 858.23-10.7 856-16.4 852.9-23.55L852.9-23.55Q852.7-24.1 852.5-24.1L852.5-24.1Q852.3-24.1 852.25-23.55L852.25-23.55Q851.45-17.65 851.05-13.03 850.65-8.4 850.65-5.1L850.65-5.1Q850.65-3.9 851.45-2.7 852.25-1.5 853.9-1.2L853.9-1.2Q855.55-0.9 855.55-0.35L855.55-0.35Q855.55 0.25 854.1 0.25L854.1 0.25 849.4 0 844.85 0.25Q843.4 0.25 843.4-0.35L843.4-0.35Q843.4-0.9 845.05-1.2L845.05-1.2Q847.65-1.65 848.15-5.1L848.15-5.1Q849.15-12.8 849.68-18.25 850.2-23.7 850.2-26.9L850.2-26.9 850.15-28.05Q850.15-28.75 849.65-29.38 849.15-30 848.75-30.25L848.75-30.25Q848.4-30.5 847.85-30.68 847.3-30.85 846.95-30.95L846.95-30.95Q846.75-31 846.53-31.08 846.3-31.15 846-31.2L846-31.2Q845.4-31.3 844.98-31.45 844.55-31.6 844.55-32.2L844.55-32.2Q844.55-32.75 845.7-32.75L845.7-32.75 854-32.35Q854.65-32.35 855.35-29.4L855.35-29.4Q855.5-28.75 855.63-28.33 855.75-27.9 855.8-27.7L855.8-27.7 863.7-7.65Q864-6.9 864.3-6.9L864.3-6.9Q864.55-6.9 864.85-7.5L864.85-7.5 874.7-28Q874.85-28.35 874.98-28.8 875.1-29.25 875.2-29.8L875.2-29.8Q875.65-32.4 876.1-32.4L876.1-32.4 877.9-32.4Q878.5-32.4 879.3-32.45 880.1-32.5 881.1-32.6L881.1-32.6Q882.1-32.7 882.68-32.75 883.25-32.8 883.45-32.8L883.45-32.8 883.6-32.8Q884.65-32.8 884.65-32.3L884.65-32.3Q884.65-31.85 884.03-31.5 883.4-31.15 882.63-30.93 881.85-30.7 881.45-30.55L881.45-30.55Q880.8-30.35 880-29.75 879.2-29.15 879.2-28.4L879.2-28.4Q879.2-25.05 879.33-21.5 879.45-17.95 879.7-14.25L879.7-14.25Q880.2-6.85 880.3-5L880.3-5Q880.4-3.2 881.28-2.38 882.15-1.55 883.95-1.25L883.95-1.25Q885.7-0.85 885.7-0.35L885.7-0.35Q885.7 0.25 884.25 0.25L884.25 0.25 878.4 0 873.15 0.25Q871.7 0.25 871.7-0.3L871.7-0.3Q871.7-1 873.25-1.2L873.25-1.2Q874.8-1.4 875.35-2.2 875.9-3 875.9-4.8L875.9-4.8Q875.9-9.7 875.3-23.2L875.3-23.2Q875.3-24 875.05-24L875.05-24Q874.85-24 874.5-23.2L874.5-23.2ZM953.17-3.55L953.17-3.55Q952.97-2.7 951.92-1.7 950.87-0.7 949.17 0 947.47 0.7 945.27 0.7L945.27 0.7Q943.07 0.7 941.2-0.68 939.32-2.05 938.2-4.45 937.07-6.85 937.07-9.9L937.07-9.9Q937.07-12.95 938.4-15.4 939.72-17.85 941.97-19.28 944.22-20.7 947.02-20.7L947.02-20.7Q950.02-20.7 951.75-19.45 953.47-18.2 953.47-16.05L953.47-16.05Q953.47-13.9 952.4-13.38 951.32-12.85 949.62-12.85L949.62-12.85 941.42-12.85Q940.72-12.85 940.45-12.53 940.17-12.2 940.17-11L940.17-11Q940.17-8.7 941.17-6.7 942.17-4.7 943.85-3.5 945.52-2.3 947.62-2.3L947.62-2.3Q950.67-2.3 952.42-4.5L952.42-4.5Q952.77-4.85 952.97-4.85L952.97-4.85Q953.32-4.85 953.32-4.35L953.32-4.35Q953.32-4 953.17-3.55ZM941.12-15.15L941.12-15.15Q941.12-14.4 942.07-14.4L942.07-14.4 946.17-14.4Q947.32-14.4 948.25-14.48 949.17-14.55 949.82-14.65L949.82-14.65Q950.32-14.7 950.32-16.1L950.32-16.1Q950.32-17.45 949.07-18.3 947.82-19.15 946.07-19.15L946.07-19.15Q944.87-19.15 943.75-18.48 942.62-17.8 941.87-16.88 941.12-15.95 941.12-15.15ZM1013.34 0.15L1009.29-0.1 1005.24 0.15Q1004.24 0.15 1004.24-0.35L1004.24-0.35Q1004.24-0.65 1004.64-0.88 1005.04-1.1 1005.49-1.25 1005.94-1.4 1006.04-1.4L1006.04-1.4Q1006.14-1.4 1006.54-1.6 1006.94-1.8 1007.04-1.95L1007.04-1.95Q1007.54-2.45 1007.54-3.1L1007.54-3.1 1007.54-13.85Q1007.54-15.4 1007.14-16.3 1006.74-17.2 1005.59-17.45L1005.59-17.45Q1005.19-17.55 1005.19-18.1L1005.19-18.1Q1005.19-18.65 1005.54-18.7L1005.54-18.7Q1006.69-18.95 1007.87-19.55 1009.04-20.15 1010.29-21L1010.29-21 1011.04-21.45 1011.09-21.45Q1011.29-21.45 1011.44-21.15L1011.44-21.15 1011.19-17.95Q1011.19-17.45 1011.29-17.35L1011.29-17.35Q1014.84-20.7 1019.19-20.7L1019.19-20.7Q1022.74-20.7 1023.84-17.7L1023.84-17.7Q1024.09-17.15 1024.39-17.15L1024.39-17.15Q1024.64-17.15 1025.44-18.1L1025.44-18.1Q1026.24-19 1028.24-19.85 1030.24-20.7 1032.54-20.7L1032.54-20.7Q1034.04-20.7 1035.17-19.75 1036.29-18.8 1036.89-17.23 1037.49-15.65 1037.49-13.75L1037.49-13.75 1037.49-3.1Q1037.49-2.1 1038.12-1.8 1038.74-1.5 1039.79-1.15L1039.79-1.15Q1040.79-0.75 1040.79-0.35L1040.79-0.35Q1040.79 0.15 1039.79 0.15L1039.79 0.15 1035.84-0.1 1031.69 0.15Q1030.69 0.15 1030.69-0.35L1030.69-0.35Q1030.69-0.8 1031.84-1.2L1031.84-1.2Q1031.94-1.2 1032.04-1.25L1032.04-1.25Q1033.74-1.8 1033.94-2.6L1033.94-2.6Q1033.99-2.7 1033.99-2.85 1033.99-3 1033.99-3.1L1033.99-3.1 1033.99-13.6Q1033.99-15.45 1032.79-16.9 1031.59-18.35 1029.99-18.35L1029.99-18.35Q1027.34-18.35 1025.79-17.15 1024.24-15.95 1024.24-13.4L1024.24-13.4 1024.24-3.1Q1024.24-2.55 1024.39-2.4L1024.39-2.4 1024.59-2.1Q1024.69-1.9 1024.84-1.85L1024.84-1.85Q1025.09-1.8 1025.14-1.7L1025.14-1.7Q1025.24-1.6 1025.49-1.55L1025.49-1.55Q1025.74-1.5 1025.79-1.4L1025.79-1.4Q1026.19-1.2 1026.49-1.2L1026.49-1.2Q1027.64-0.8 1027.64-0.35L1027.64-0.35Q1027.64 0.15 1026.64 0.15L1026.64 0.15 1022.54-0.1 1018.39 0.15Q1017.39 0.15 1017.39-0.35L1017.39-0.35Q1017.39-0.8 1018.79-1.25L1018.79-1.25Q1020.19-1.7 1020.49-2.2L1020.49-2.2Q1020.74-2.7 1020.74-3.1L1020.74-3.1 1020.74-13.6Q1020.74-15.45 1019.54-16.9 1018.34-18.35 1016.74-18.35L1016.74-18.35Q1014.09-18.35 1012.57-17.18 1011.04-16 1011.04-13.4L1011.04-13.4 1011.04-3.1Q1011.04-2.15 1011.62-1.83 1012.19-1.5 1012.39-1.45L1012.39-1.45Q1014.34-0.95 1014.34-0.3L1014.34-0.3Q1014.34 0.15 1013.34 0.15L1013.34 0.15ZM1113.01-10.35L1113.01-10.35Q1113.01-7.45 1111.69-4.93 1110.36-2.4 1107.84-0.85 1105.31 0.7 1101.71 0.7L1101.71 0.7Q1098.91 0.7 1096.64-0.6 1094.36-1.9 1093.06-4.17 1091.76-6.45 1091.76-9.35L1091.76-9.35Q1091.76-11.5 1092.61-13.53 1093.46-15.55 1094.99-17.18 1096.51-18.8 1098.46-19.75 1100.41-20.7 1102.61-20.7L1102.61-20.7Q1105.56-20.7 1107.91-19.33 1110.26-17.95 1111.64-15.63 1113.01-13.3 1113.01-10.35ZM1095.86-10.5L1095.86-10.5Q1095.86-7.95 1096.79-5.73 1097.71-3.5 1099.29-2.15 1100.86-0.8 1102.76-0.8L1102.76-0.8Q1105.26-0.8 1106.59-1.88 1107.91-2.95 1108.41-4.88 1108.91-6.8 1108.91-9.35L1108.91-9.35Q1108.91-11.95 1107.99-14.18 1107.06-16.4 1105.49-17.78 1103.91-19.15 1101.86-19.15L1101.86-19.15Q1095.86-19.15 1095.86-10.5ZM1173.69 0.15L1169.34-0.1 1165.29 0.15Q1164.29 0.15 1164.29-0.35L1164.29-0.35Q1164.29-0.8 1165.19-1.1L1165.19-1.1Q1166.09-1.4 1166.39-1.53 1166.69-1.65 1167.04-2.05L1167.04-2.05Q1167.34-2.45 1167.34-3.1L1167.34-3.1 1167.34-13.85Q1167.34-17 1165.29-17.45L1165.29-17.45Q1164.89-17.55 1164.89-18.1L1164.89-18.1Q1164.89-18.65 1165.24-18.7L1165.24-18.7Q1167.09-19.05 1168.04-19.7L1168.04-19.7Q1168.89-20.25 1169.46-20.6 1170.04-20.95 1170.29-21.15L1170.29-21.15Q1170.84-21.45 1170.84-21.5L1170.84-21.5 1170.99-21.5Q1171.14-21.5 1171.19-21.15L1171.19-21.15Q1171.19-20.5 1171.19-19.85 1171.19-19.2 1171.14-18.55L1171.14-18.55Q1171.09-17.3 1171.14-17.3L1171.14-17.3Q1171.14-17.3 1171.39-17.55L1171.39-17.55Q1172.09-18.45 1172.29-18.55L1172.29-18.55Q1174.64-20.7 1176.89-20.7L1176.89-20.7Q1177.94-20.7 1178.61-20.25 1179.29-19.8 1179.29-19.05L1179.29-19.05Q1179.29-18.3 1178.66-17.4 1178.04-16.5 1177.49-16.5L1177.49-16.5Q1176.94-16.5 1175.89-16.95L1175.89-16.95Q1174.84-17.4 1174.34-17.4L1174.34-17.4Q1172.89-17.4 1171.86-16.45 1170.84-15.5 1170.84-13.2L1170.84-13.2 1170.84-3.35Q1170.89-2.05 1173.54-1.2L1173.54-1.2Q1174.69-0.8 1174.69-0.35L1174.69-0.35Q1174.69 0.15 1173.69 0.15L1173.69 0.15ZM1236.11 7.3L1236.11 7.3Q1235.36 9.15 1234.73 10.75 1234.11 12.35 1233.26 13.3 1232.41 14.25 1230.81 14.25L1230.81 14.25Q1229.86 14.25 1229.06 13.75 1228.26 13.25 1228.26 12.45L1228.26 12.45Q1228.26 10.95 1229.61 10.95L1229.61 10.95 1231.61 11.25Q1232.16 11.25 1232.56 10.7L1232.56 10.7Q1233.71 8.7 1234.86 6.23 1236.01 3.75 1237.11 0.8L1237.11 0.8Q1237.26 0.35 1237.26-0.45L1237.26-0.45Q1237.26-1.35 1237.06-1.8L1237.06-1.8 1231.26-16.45Q1230.41-18.55 1229.01-18.9L1229.01-18.9Q1227.86-19.3 1227.86-19.8L1227.86-19.8Q1227.86-20.25 1228.86-20.25L1228.86-20.25 1232.51-20 1236.31-20.25Q1237.31-20.25 1237.31-19.7L1237.31-19.7Q1237.31-19 1235.86-18.6L1235.86-18.6Q1234.86-18.3 1234.86-17L1234.86-17Q1234.86-16.65 1235.26-15.6L1235.26-15.6 1239.21-5.8Q1239.36-5.35 1239.56-5.35L1239.56-5.35Q1239.76-5.35 1239.96-5.85L1239.96-5.85 1243.31-14.75Q1243.71-15.7 1243.71-16.9L1243.71-16.9Q1243.71-18.15 1242.51-18.65L1242.51-18.65Q1241.26-19.15 1241.26-19.7L1241.26-19.7Q1241.26-20.25 1242.26-20.25L1242.26-20.25 1245.81-20 1248.76-20.25Q1249.76-20.25 1249.76-19.8L1249.76-19.8Q1249.76-19.3 1248.81-19L1248.81-19Q1247.86-18.65 1247.01-17.7 1246.16-16.75 1245.66-15.55L1245.66-15.55 1238.86 0.65 1238.06 2.65Q1237.26 4.5 1236.11 7.3Z" opacity="1" transform="matrix(1,0,0,1,0,0)" fill="#ffffff" class="slogan-text-1" data-fill-palette-color="secondary" id="text-1"></path></svg></g></svg></g></svg></g></svg></g><g></g></svg></g><defs></defs></svg><rect width="395.52" height="87.04075985545138" fill="none" stroke="none" visibility="hidden"></rect></g></svg></g></svg>